<svg version="1.1" id="Layer_1" xmlns="http://www.w3.org/2000/svg" xmlns:xlink="http://www.w3.org/1999/xlink" x="0px" y="0px"
	 width="100%" viewBox="0 0 500 500" enable-background="new 0 0 500 500" xml:space="preserve">
<path fill="#000000" opacity="1.000000" stroke="none" 
	d="
M283.000000,501.000000 
	C188.666687,501.000000 94.833382,501.000000 1.000050,501.000000 
	C1.000034,334.333405 1.000034,167.666794 1.000017,1.000140 
	C167.666565,1.000093 334.333130,1.000093 500.999756,1.000047 
	C500.999847,167.666519 500.999847,334.333038 500.999939,500.999786 
	C428.500000,501.000000 356.000000,501.000000 283.000000,501.000000 
M117.957550,104.957275 
	C117.957550,104.957275 117.956429,104.883713 117.426163,105.036415 
	C117.245285,105.343208 117.064400,105.650009 116.957680,105.957970 
	C116.957680,105.957970 116.956314,105.883804 116.425438,106.036911 
	C116.245644,106.344635 116.065849,106.652359 115.963028,106.961548 
	C115.963028,106.961548 115.962227,106.884552 115.435661,107.044327 
	C115.251724,107.348907 115.067787,107.653488 114.955589,107.958771 
	C114.955589,107.958771 114.952728,107.887085 114.426682,108.035988 
	C114.246742,108.339424 114.066803,108.642860 113.956261,108.954964 
	C113.956261,108.954964 113.948318,108.885475 113.428299,109.044022 
	C113.247345,109.345467 113.066391,109.646912 112.954933,109.956261 
	C112.954933,109.956261 112.946274,109.886856 112.422989,110.037857 
	C112.243835,110.340485 112.064690,110.643112 111.954903,110.954933 
	C111.954903,110.954933 111.945686,110.885574 111.422897,111.037811 
	C111.243790,111.340370 111.064690,111.642929 110.954903,111.954895 
	C110.954903,111.954895 110.945541,111.885559 110.422729,112.037910 
	C110.244064,112.340637 110.065399,112.643364 109.956070,112.955109 
	C109.956070,112.955109 109.947563,112.885704 109.428856,113.042801 
	C109.248016,113.342987 109.067184,113.643173 108.955399,113.956383 
	C108.955399,113.956383 108.941803,113.887451 108.418793,114.040398 
	C108.240852,114.344070 108.062904,114.647736 107.955978,114.955170 
	C107.955978,114.955170 107.953072,114.884102 107.423904,115.037689 
	C107.243912,115.344460 107.063911,115.651222 106.959221,115.959251 
	C106.959221,115.959251 106.958023,115.883942 106.427231,116.035858 
	C106.245995,116.342598 106.064758,116.649338 105.956947,116.957253 
	C105.956947,116.957253 105.955544,116.883820 105.425896,117.036514 
	C105.245148,117.342934 105.064407,117.649353 104.956421,117.956863 
	C104.956421,117.956863 104.954895,117.884117 104.426369,118.036133 
	C104.245644,118.341629 104.064919,118.647118 103.955925,118.969193 
	C103.955925,118.969193 103.925682,118.902077 103.309822,119.134872 
	C103.169312,119.768555 103.028801,120.402237 102.242561,121.240677 
	C99.350357,125.136932 96.571693,129.123886 93.545052,132.912766 
	C83.733719,145.195007 75.983398,158.576721 69.836212,173.107788 
	C61.140091,193.664154 55.403954,214.935516 54.207806,237.101059 
	C52.948708,260.433044 54.776833,283.533936 61.747303,306.232208 
	C67.186478,323.944061 74.244576,340.753906 84.166824,356.257111 
	C89.720078,364.933899 96.606293,372.757568 102.992706,381.619629 
	C103.302719,382.112030 103.612740,382.604401 103.956848,383.029572 
	C103.956848,383.029572 103.883797,383.048157 104.037491,383.578430 
	C104.345551,383.757446 104.653618,383.936493 104.962807,384.037384 
	C104.962807,384.037384 104.884659,384.038513 105.035011,384.573456 
	C105.344147,384.754211 105.653282,384.934937 105.963432,385.036896 
	C105.963432,385.036896 105.884666,385.038147 106.034691,385.572937 
	C106.343475,385.753937 106.652252,385.934906 106.961914,386.038574 
	C106.961914,386.038574 106.884628,386.040009 107.033516,386.571472 
	C107.339706,386.753052 107.645889,386.934601 107.955482,387.045288 
	C107.955482,387.045288 107.884621,387.049438 108.034538,387.574219 
	C108.337349,387.753906 108.640160,387.933594 108.954964,388.044250 
	C108.954964,388.044250 108.885864,388.055847 109.042953,388.574280 
	C109.343452,388.754211 109.643944,388.934113 109.955948,389.044952 
	C109.955948,389.044952 109.886940,389.056976 110.039024,389.580017 
	C110.342293,389.758179 110.645561,389.936310 110.955078,390.044434 
	C110.955078,390.044434 110.885040,390.050323 111.039047,390.574158 
	C111.342155,390.754425 111.645271,390.934662 111.955437,391.045166 
	C111.955437,391.045166 111.885757,391.052643 112.037163,391.576904 
	C112.340584,391.755768 112.643997,391.934631 112.955109,392.043854 
	C112.955109,392.043854 112.885422,392.050964 113.041626,392.570587 
	C113.342041,392.751678 113.642464,392.932770 113.956291,393.044769 
	C113.956291,393.044769 113.887337,393.058868 114.040115,393.583405 
	C114.345062,393.760773 114.650009,393.938141 114.956726,394.042480 
	C114.956726,394.042480 114.883705,394.043274 115.035835,394.575348 
	C115.344261,394.755035 115.652687,394.934723 115.962120,395.038239 
	C115.962120,395.038239 115.885948,395.039490 116.035019,395.573517 
	C116.343674,395.753784 116.652328,395.934082 116.961998,396.038330 
	C116.961998,396.038330 116.885994,396.039642 117.033920,396.571930 
	C117.340546,396.753448 117.647171,396.934937 117.955772,397.044891 
	C117.955772,397.044891 117.884216,397.047485 118.034599,397.574127 
	C118.338524,397.754547 118.642441,397.934967 118.973877,398.037720 
	C118.973877,398.037720 118.904602,398.082275 119.138138,398.696930 
	C119.770218,398.843811 120.402298,398.990662 121.263023,399.776825 
	C127.614029,404.531799 133.851181,409.448700 140.338135,414.010345 
	C157.505081,426.082275 176.354904,434.398712 196.489868,440.438293 
	C210.175735,444.543427 224.068542,446.698975 238.098984,447.758301 
	C248.431534,448.538391 258.921448,447.462219 269.329132,446.961182 
	C281.871216,446.357391 293.975250,443.649017 306.093109,440.208435 
	C323.957367,435.136383 340.736206,427.842590 356.188324,417.811218 
	C365.647797,411.670227 374.111664,403.995667 383.666992,396.985168 
	C384.143799,396.680725 384.620636,396.376251 385.031036,396.045044 
	C385.031036,396.045044 385.043274,396.115601 385.575165,395.963226 
	C385.753571,395.654510 385.931976,395.345795 386.033020,395.035675 
	C386.033020,395.035675 386.033661,395.113068 386.556854,394.946075 
	C386.742737,394.642487 386.928619,394.338898 387.039978,394.035370 
	C387.039978,394.035370 387.042328,394.109802 387.570343,393.966064 
	C387.751038,393.662872 387.931763,393.359711 388.043457,393.044922 
	C388.043457,393.044922 388.054077,393.114075 388.572815,392.956085 
	C388.753235,392.655365 388.933655,392.354645 389.044891,392.043671 
	C389.044891,392.043671 389.055878,392.112732 389.577576,391.961945 
	C389.756104,391.660217 389.934631,391.358490 390.044128,391.044800 
	C390.044128,391.044800 390.055603,391.113922 390.574982,390.958374 
	C390.754608,390.657471 390.934265,390.356567 391.044830,390.044128 
	C391.044830,390.044128 391.056824,390.113159 391.578217,389.961670 
	C391.756409,389.659821 391.934570,389.357971 392.043732,389.044708 
	C392.043732,389.044708 392.054504,389.113831 392.572845,388.956055 
	C392.753204,388.655579 392.933563,388.355103 393.044861,388.043732 
	C393.044861,388.043732 393.056427,388.112701 393.581207,387.960052 
	C393.758301,387.655029 393.935425,387.350037 394.039764,387.042725 
	C394.039764,387.042725 394.039978,387.115509 394.566162,386.952606 
	C394.749207,386.647125 394.932281,386.341675 395.038086,386.035706 
	C395.038086,386.035706 395.039856,386.112915 395.572510,385.964630 
	C395.753632,385.657379 395.934753,385.350128 396.041931,385.041687 
	C396.041931,385.041687 396.043335,385.115601 396.572876,384.964874 
	C396.753906,384.659241 396.934967,384.353607 397.045074,384.044495 
	C397.045074,384.044495 397.049011,384.115417 397.574463,383.964264 
	C397.754608,383.660797 397.934753,383.357330 398.035217,383.024139 
	C398.035217,383.024139 398.084290,383.093597 398.691711,382.865601 
	C398.822449,382.241974 398.953186,381.618347 399.728912,380.772766 
	C403.090149,376.413971 406.442657,372.048431 409.814117,367.697510 
	C424.954559,348.158447 434.889069,325.955048 441.576355,302.428101 
	C444.933807,290.616058 446.857910,278.195404 447.743469,265.928223 
	C449.133606,246.670914 448.195740,227.290024 443.550018,208.475143 
	C440.631989,196.657455 436.360443,185.114197 431.945465,173.739197 
	C424.329285,154.116409 412.751099,136.857117 398.977020,120.491531 
	C398.682495,119.965813 398.387970,119.440094 398.026184,118.982994 
	C398.026184,118.982994 398.115448,118.947441 397.962555,118.420906 
	C397.657166,118.241982 397.351807,118.063057 397.044403,117.955894 
	C397.044403,117.955894 397.116180,117.954216 396.963776,117.423538 
	C396.656128,117.244095 396.348450,117.064644 396.039551,116.960403 
	C396.039551,116.960403 396.114746,116.959274 395.964203,116.425034 
	C395.654938,116.245514 395.345642,116.065987 395.035522,115.964111 
	C395.035522,115.964111 395.113129,115.962830 394.966431,115.428856 
	C394.659149,115.247147 394.351837,115.065430 394.043457,114.955635 
	C394.043457,114.955635 394.115356,114.953613 393.966125,114.426987 
	C393.662445,114.246895 393.358765,114.066811 393.045044,113.955902 
	C393.045044,113.955902 393.114288,113.946320 392.956879,113.426704 
	C392.655701,113.246368 392.354523,113.066040 392.043762,112.954956 
	C392.043762,112.954956 392.112885,112.944519 391.962738,112.421638 
	C391.660248,112.243324 391.357788,112.065002 391.045013,111.955864 
	C391.045013,111.955864 391.114288,111.946198 390.958557,111.425377 
	C390.656799,111.245461 390.355072,111.065544 390.044250,110.954987 
	C390.044250,110.954987 390.113586,110.945602 389.962891,110.421921 
	C389.659821,110.243515 389.356720,110.065109 389.044952,109.956108 
	C389.044952,109.956108 389.114410,109.947945 388.958313,109.428970 
	C388.658234,109.248123 388.358124,109.067268 388.043488,108.955536 
	C388.043488,108.955536 388.112488,108.940407 387.960480,108.417229 
	C387.656708,108.239731 387.352905,108.062233 387.045135,107.955650 
	C387.045135,107.955650 387.116089,107.952469 386.962860,107.421997 
	C386.654877,107.242752 386.346863,107.063507 386.037689,106.962120 
	C386.037689,106.962120 386.115570,106.960999 385.965088,106.426437 
	C385.656189,106.245613 385.347321,106.064796 385.037476,105.962105 
	C385.037476,105.962105 385.115601,105.960823 384.965179,105.426529 
	C384.656555,105.245590 384.347931,105.064651 384.038391,104.961098 
	C384.038391,104.961098 384.115784,104.959679 383.966614,104.428444 
	C383.660522,104.246964 383.354462,104.065475 383.020569,103.965637 
	C383.020569,103.965637 383.087921,103.911743 382.832825,103.275230 
	C382.168976,103.252327 381.505096,103.229416 380.277588,102.825897 
	C367.866791,94.214958 356.034760,84.552658 342.872467,77.306862 
	C331.145508,70.851242 318.233704,66.057755 305.316498,62.392609 
	C292.428986,58.735878 278.963776,56.281673 265.607666,55.335400 
	C251.208313,54.315216 236.614990,55.232536 222.159103,56.143097 
	C214.766998,56.608715 207.284988,58.265682 200.210526,60.530396 
	C190.052658,63.782192 180.284637,68.230453 170.252151,71.899895 
	C151.602051,78.721260 136.177475,90.588272 120.368736,102.995270 
	C119.880356,103.304405 119.391983,103.613533 118.970978,103.957710 
	C118.970978,103.957710 118.951332,103.884346 118.423447,104.037842 
	C118.243629,104.343834 118.063805,104.649834 117.957550,104.957275 
z"/>
<path fill="#718AFD" opacity="1.000000" stroke="none" 
	d="
M121.020500,102.914368 
	C136.177475,90.588272 151.602051,78.721260 170.252151,71.899895 
	C180.284637,68.230453 190.052658,63.782192 200.210526,60.530396 
	C207.284988,58.265682 214.766998,56.608715 222.159103,56.143097 
	C236.614990,55.232536 251.208313,54.315216 265.607666,55.335400 
	C278.963776,56.281673 292.428986,58.735878 305.316498,62.392609 
	C318.233704,66.057755 331.145508,70.851242 342.872467,77.306862 
	C356.034760,84.552658 367.866791,94.214958 380.782532,103.274330 
	C381.887634,103.785751 382.487762,103.848747 383.087921,103.911743 
	C383.087921,103.911743 383.020569,103.965637 382.993439,104.255890 
	C383.349457,104.683983 383.732635,104.821831 384.115784,104.959679 
	C384.115784,104.959679 384.038391,104.961098 384.020142,105.248772 
	C384.373138,105.677902 384.744354,105.819366 385.115601,105.960831 
	C385.115601,105.960823 385.037476,105.962105 385.021179,106.248840 
	C385.375122,106.677383 385.745331,106.819183 386.115570,106.960999 
	C386.115570,106.960999 386.037689,106.962120 386.019592,107.254517 
	C386.373047,107.682091 386.744568,107.817276 387.116089,107.952469 
	C387.116089,107.952469 387.045135,107.955650 387.001282,108.266876 
	C387.342438,108.698868 387.727478,108.819633 388.112488,108.940407 
	C388.112488,108.940407 388.043488,108.955536 387.981079,109.263977 
	C388.317261,109.697594 388.715820,109.822769 389.114410,109.947945 
	C389.114410,109.947945 389.044952,109.956108 388.987671,110.265945 
	C389.324768,110.699051 389.719177,110.822327 390.113586,110.945602 
	C390.113586,110.945602 390.044250,110.954987 389.991577,111.263077 
	C390.330688,111.696175 390.722504,111.821182 391.114288,111.946198 
	C391.114288,111.946198 391.045013,111.955864 390.984497,112.267609 
	C391.320312,112.701073 391.716583,112.822792 392.112885,112.944519 
	C392.112885,112.944519 392.043762,112.954956 391.991272,113.262970 
	C392.330597,113.696091 392.722443,113.821205 393.114288,113.946320 
	C393.114288,113.946320 393.045044,113.955902 392.985962,114.259613 
	C393.323029,114.693420 393.719208,114.823517 394.115356,114.953613 
	C394.115356,114.953613 394.043457,114.955635 394.012543,115.247986 
	C394.358795,115.681168 394.735962,115.821999 395.113129,115.962830 
	C395.113129,115.962830 395.035522,115.964111 395.020630,116.251999 
	C395.375397,116.679680 395.745056,116.819473 396.114746,116.959274 
	C396.114746,116.959274 396.039551,116.960403 396.015442,117.254166 
	C396.366272,117.683357 396.741211,117.818787 397.116180,117.954208 
	C397.116180,117.954216 397.044403,117.955894 397.007935,118.258392 
	C397.352814,118.689743 397.734131,118.818596 398.115448,118.947441 
	C398.115448,118.947441 398.026184,118.982994 397.866669,119.231522 
	C398.071136,120.039879 398.435150,120.599701 398.799164,121.159523 
	C412.751099,136.857117 424.329285,154.116409 431.945465,173.739197 
	C436.360443,185.114197 440.631989,196.657455 443.550018,208.475143 
	C448.195740,227.290024 449.133606,246.670914 447.743469,265.928223 
	C446.857910,278.195404 444.933807,290.616058 441.576355,302.428101 
	C434.889069,325.955048 424.954559,348.158447 409.814117,367.697510 
	C406.442657,372.048431 403.090149,376.413971 399.087402,381.027893 
	C398.325317,381.886536 398.204803,382.490082 398.084290,383.093597 
	C398.084290,383.093597 398.035217,383.024139 397.735596,382.981232 
	C397.306976,383.330688 397.177979,383.723053 397.049011,384.115417 
	C397.049011,384.115417 397.045074,384.044495 396.747131,384.004761 
	C396.313873,384.348541 396.178619,384.732086 396.043335,385.115601 
	C396.043335,385.115601 396.041931,385.041687 395.748383,385.013123 
	C395.316498,385.360687 395.178192,385.736786 395.039856,386.112915 
	C395.039856,386.112915 395.038086,386.035706 394.750854,386.023132 
	C394.322418,386.378845 394.181183,386.747162 394.039978,387.115509 
	C394.039978,387.115509 394.039764,387.042725 393.731750,387.000671 
	C393.301300,387.343323 393.178864,387.728027 393.056427,388.112701 
	C393.056427,388.112701 393.044861,388.043732 392.734802,387.986755 
	C392.301361,388.324432 392.177917,388.719147 392.054504,389.113831 
	C392.054504,389.113831 392.043732,389.044708 391.730255,388.979980 
	C391.296783,389.314575 391.176788,389.713867 391.056824,390.113159 
	C391.056824,390.113159 391.044830,390.044128 390.733765,389.984863 
	C390.300354,390.321686 390.177979,390.717804 390.055603,391.113922 
	C390.055603,391.113922 390.044128,391.044800 389.730957,390.980286 
	C389.297119,391.314728 389.176483,391.713745 389.055878,392.112732 
	C389.055878,392.112732 389.044891,392.043671 388.735535,391.988220 
	C388.302124,392.326538 388.178101,392.720306 388.054077,393.114075 
	C388.054077,393.114075 388.043457,393.044922 387.738251,392.980286 
	C387.302795,393.313690 387.172546,393.711761 387.042328,394.109802 
	C387.042328,394.109802 387.039978,394.035370 386.755493,394.024048 
	C386.325226,394.379517 386.179443,394.746307 386.033661,395.113068 
	C386.033661,395.113068 386.033020,395.035675 385.741241,395.010803 
	C385.314056,395.362457 385.178650,395.739044 385.043274,396.115601 
	C385.043274,396.115601 385.031036,396.045044 384.759277,395.929443 
	C383.999237,396.212494 383.510956,396.611145 383.022675,397.009827 
	C374.111664,403.995667 365.647797,411.670227 356.188324,417.811218 
	C340.736206,427.842590 323.957367,435.136383 306.093109,440.208435 
	C293.975250,443.649017 281.871216,446.357391 269.329132,446.961182 
	C258.921448,447.462219 248.431534,448.538391 238.098984,447.758301 
	C224.068542,446.698975 210.175735,444.543427 196.489868,440.438293 
	C176.354904,434.398712 157.505081,426.082275 140.338135,414.010345 
	C133.851181,409.448700 127.614029,404.531799 121.028984,399.113800 
	C120.164833,398.327942 119.534721,398.205109 118.904602,398.082275 
	C118.904602,398.082275 118.973877,398.037720 119.015785,397.738708 
	C118.666534,397.308960 118.275375,397.178223 117.884216,397.047485 
	C117.884216,397.047485 117.955772,397.044891 117.990494,396.750244 
	C117.645477,396.316956 117.265739,396.178284 116.885994,396.039642 
	C116.885994,396.039642 116.961998,396.038330 116.982666,395.748901 
	C116.630875,395.319458 116.258415,395.179474 115.885956,395.039490 
	C115.885948,395.039490 115.962120,395.038239 115.982529,394.747253 
	C115.629860,394.318634 115.256783,394.180969 114.883698,394.043274 
	C114.883705,394.043274 114.956726,394.042480 114.991608,393.734314 
	C114.646782,393.303711 114.267059,393.181274 113.887337,393.058868 
	C113.887337,393.058868 113.956291,393.044769 114.016953,392.737122 
	C113.680214,392.303314 113.282822,392.177124 112.885422,392.050964 
	C112.885422,392.050964 112.955109,392.043854 113.010193,391.735931 
	C112.672104,391.302887 112.278931,391.177765 111.885757,391.052643 
	C111.885757,391.052643 111.955437,391.045166 112.004219,390.740356 
	C111.663681,390.307129 111.274361,390.178711 110.885040,390.050323 
	C110.885040,390.050323 110.955078,390.044434 111.005379,389.733673 
	C110.666100,389.300934 110.276520,389.178955 109.886940,389.056976 
	C109.886940,389.056976 109.955948,389.044952 110.014206,388.734253 
	C109.676926,388.300995 109.281395,388.178436 108.885864,388.055847 
	C108.885864,388.055847 108.954964,388.044250 109.018410,387.737732 
	C108.682777,387.303925 108.283699,387.176697 107.884621,387.049438 
	C107.884621,387.049438 107.955482,387.045288 107.993866,386.749756 
	C107.649712,386.316162 107.267174,386.178070 106.884628,386.040009 
	C106.884628,386.040009 106.961914,386.038574 106.980164,385.751312 
	C106.627159,385.322083 106.255913,385.180115 105.884659,385.038147 
	C105.884666,385.038147 105.963432,385.036896 105.978500,384.750793 
	C105.623940,384.322662 105.254295,384.180603 104.884659,384.038513 
	C104.884659,384.038513 104.962807,384.037384 104.980286,383.744751 
	C104.626442,383.317444 104.255119,383.182800 103.883797,383.048157 
	C103.883797,383.048157 103.956848,383.029572 104.088821,382.741089 
	C103.777832,381.956940 103.334862,381.461304 102.891899,380.965637 
	C96.606293,372.757568 89.720078,364.933899 84.166824,356.257111 
	C74.244576,340.753906 67.186478,323.944061 61.747303,306.232208 
	C54.776833,283.533936 52.948708,260.433044 54.207806,237.101059 
	C55.403954,214.935516 61.140091,193.664154 69.836212,173.107788 
	C75.983398,158.576721 83.733719,145.195007 93.545052,132.912766 
	C96.571693,129.123886 99.350357,125.136932 102.885925,120.993744 
	C103.661423,120.131897 103.793556,119.516991 103.925682,118.902077 
	C103.925682,118.902077 103.955925,118.969193 104.254883,119.002335 
	C104.687523,118.651688 104.821213,118.267899 104.954895,117.884117 
	C104.954895,117.884117 104.956421,117.956863 105.252914,117.989182 
	C105.684784,117.642273 105.820168,117.263046 105.955551,116.883820 
	C105.955544,116.883820 105.956947,116.957253 106.251373,116.988480 
	C106.683197,116.641121 106.820610,116.262535 106.958023,115.883942 
	C106.958023,115.883942 106.959221,115.959251 107.255188,115.986557 
	C107.685135,115.637268 107.819099,115.260689 107.953072,114.884102 
	C107.953072,114.884102 107.955978,114.955170 108.267174,115.000290 
	C108.699516,114.659424 108.820663,114.273438 108.941803,113.887451 
	C108.941803,113.887451 108.955399,113.956383 109.264923,114.018463 
	C109.698830,113.682266 109.823196,113.283989 109.947563,112.885704 
	C109.947563,112.885704 109.956070,112.955109 110.266296,113.014915 
	C110.699524,112.678337 110.822533,112.281944 110.945541,111.885559 
	C110.945541,111.885559 110.954903,111.954895 111.264694,112.012207 
	C111.698219,111.674873 111.821953,111.280228 111.945694,110.885574 
	C111.945686,110.885574 111.954903,110.954933 112.265419,111.011803 
	C112.699379,110.674736 112.822830,110.280800 112.946274,109.886856 
	C112.946274,109.886856 112.954933,109.956261 113.261856,110.006912 
	C113.695282,109.666862 113.821800,109.276169 113.948318,108.885475 
	C113.948318,108.885475 113.956261,108.954964 114.262772,109.014206 
	C114.697090,108.677986 114.824905,108.282532 114.952728,107.887085 
	C114.952728,107.887085 114.955589,107.958771 115.247437,107.985588 
	C115.680260,107.636452 115.821243,107.260498 115.962219,106.884552 
	C115.962227,106.884552 115.963028,106.961548 116.255859,106.988037 
	C116.684563,106.637619 116.820442,106.260712 116.956314,105.883804 
	C116.956314,105.883804 116.957680,105.957970 117.252396,105.987534 
	C117.683556,105.639305 117.819992,105.261513 117.956429,104.883713 
	C117.956429,104.883713 117.957550,104.957275 118.256638,104.990097 
	C118.687599,104.643394 118.819466,104.263870 118.951340,103.884346 
	C118.951332,103.884346 118.970978,103.957710 119.255386,104.090576 
	C120.033371,103.787086 120.526932,103.350731 121.020500,102.914368 
z"/>
<path fill="#E4ECFE" opacity="1.000000" stroke="none" 
	d="
M119.021370,398.389587 
	C119.534721,398.205109 120.164833,398.327942 120.914665,398.794128 
	C120.402298,398.990662 119.770218,398.843811 119.021370,398.389587 
z"/>
<path fill="#E4EDFF" opacity="1.000000" stroke="none" 
	d="
M383.344849,396.997498 
	C383.510956,396.611145 383.999237,396.212494 384.792480,395.942810 
	C384.620636,396.376251 384.143799,396.680725 383.344849,396.997498 
z"/>
<path fill="#E4EDFF" opacity="1.000000" stroke="none" 
	d="
M398.388000,382.979614 
	C398.204803,382.490082 398.325317,381.886536 398.764893,381.138855 
	C398.953186,381.618347 398.822449,382.241974 398.388000,382.979614 
z"/>
<path fill="#E4ECFE" opacity="1.000000" stroke="none" 
	d="
M102.942307,381.292633 
	C103.334862,381.461304 103.777832,381.956940 104.071777,382.774689 
	C103.612740,382.604401 103.302719,382.112030 102.942307,381.292633 
z"/>
<path fill="#E4ECFE" opacity="1.000000" stroke="none" 
	d="
M398.888092,120.825531 
	C398.435150,120.599701 398.071136,120.039879 397.900299,119.197212 
	C398.387970,119.440094 398.682495,119.965813 398.888092,120.825531 
z"/>
<path fill="#E5EDFF" opacity="1.000000" stroke="none" 
	d="
M103.617752,119.018478 
	C103.793556,119.516991 103.661423,120.131897 103.208794,120.891365 
	C103.028801,120.402237 103.169312,119.768555 103.617752,119.018478 
z"/>
<path fill="#E5EDFF" opacity="1.000000" stroke="none" 
	d="
M120.694618,102.954819 
	C120.526932,103.350731 120.033371,103.787086 119.221710,104.073059 
	C119.391983,103.613533 119.880356,103.304405 120.694618,102.954819 
z"/>
<path fill="#E4ECFE" opacity="1.000000" stroke="none" 
	d="
M382.960388,103.593491 
	C382.487762,103.848747 381.887634,103.785751 381.064362,103.464638 
	C381.505096,103.229416 382.168976,103.252327 382.960388,103.593491 
z"/>
<path fill="#E4EDFF" opacity="1.000000" stroke="none" 
	d="
M397.311737,384.039856 
	C397.177979,383.723053 397.306976,383.330688 397.775421,382.996094 
	C397.934753,383.357330 397.754608,383.660797 397.311737,384.039856 
z"/>
<path fill="#E4ECFE" opacity="1.000000" stroke="none" 
	d="
M103.960648,383.313293 
	C104.255119,383.182800 104.626442,383.317444 104.979721,383.783813 
	C104.653618,383.936493 104.345551,383.757446 103.960648,383.313293 
z"/>
<path fill="#E4ECFE" opacity="1.000000" stroke="none" 
	d="
M104.959831,384.305969 
	C105.254295,384.180603 105.623940,384.322662 105.977997,384.790222 
	C105.653282,384.934937 105.344147,384.754211 104.959831,384.305969 
z"/>
<path fill="#E4EDFF" opacity="1.000000" stroke="none" 
	d="
M396.308105,385.040222 
	C396.178619,384.732086 396.313873,384.348541 396.782593,384.006500 
	C396.934967,384.353607 396.753906,384.659241 396.308105,385.040222 
z"/>
<path fill="#E4ECFE" opacity="1.000000" stroke="none" 
	d="
M105.959671,385.305542 
	C106.255913,385.180115 106.627159,385.322083 106.979721,385.789978 
	C106.652252,385.934906 106.343475,385.753937 105.959671,385.305542 
z"/>
<path fill="#E4EDFF" opacity="1.000000" stroke="none" 
	d="
M395.306183,386.038757 
	C395.178192,385.736786 395.316498,385.360687 395.785370,385.013702 
	C395.934753,385.350128 395.753632,385.657379 395.306183,386.038757 
z"/>
<path fill="#E4ECFE" opacity="1.000000" stroke="none" 
	d="
M106.959076,386.305725 
	C107.267174,386.178070 107.649712,386.316162 107.992172,386.785217 
	C107.645889,386.934601 107.339706,386.753052 106.959076,386.305725 
z"/>
<path fill="#E4EDFF" opacity="1.000000" stroke="none" 
	d="
M394.303040,387.034058 
	C394.181183,386.747162 394.322418,386.378845 394.789490,386.023376 
	C394.932281,386.341675 394.749207,386.647125 394.303040,387.034058 
z"/>
<path fill="#E4ECFE" opacity="1.000000" stroke="none" 
	d="
M107.959579,387.311829 
	C108.283699,387.176697 108.682777,387.303925 109.012413,387.772217 
	C108.640160,387.933594 108.337349,387.753906 107.959579,387.311829 
z"/>
<path fill="#E4EDFF" opacity="1.000000" stroke="none" 
	d="
M393.318817,388.036377 
	C393.178864,387.728027 393.301300,387.343323 393.768127,387.001831 
	C393.935425,387.350037 393.758301,387.655029 393.318817,388.036377 
z"/>
<path fill="#E4ECFE" opacity="1.000000" stroke="none" 
	d="
M108.964409,388.315063 
	C109.281395,388.178436 109.676926,388.300995 110.008446,388.768799 
	C109.643944,388.934113 109.343452,388.754211 108.964409,388.315063 
z"/>
<path fill="#E4EDFF" opacity="1.000000" stroke="none" 
	d="
M392.313660,389.034943 
	C392.177917,388.719147 392.301361,388.324432 392.769348,387.992188 
	C392.933563,388.355103 392.753204,388.655579 392.313660,389.034943 
z"/>
<path fill="#E4ECFE" opacity="1.000000" stroke="none" 
	d="
M109.962982,389.318481 
	C110.276520,389.178955 110.666100,389.300934 111.002258,389.768677 
	C110.645561,389.936310 110.342293,389.758179 109.962982,389.318481 
z"/>
<path fill="#E4EDFF" opacity="1.000000" stroke="none" 
	d="
M391.317505,390.037415 
	C391.176788,389.713867 391.296783,389.314575 391.764771,388.985718 
	C391.934570,389.357971 391.756409,389.659821 391.317505,390.037415 
z"/>
<path fill="#E4ECFE" opacity="1.000000" stroke="none" 
	d="
M110.962044,390.312256 
	C111.274361,390.178711 111.663681,390.307129 112.000687,390.775208 
	C111.645271,390.934662 111.342155,390.754425 110.962044,390.312256 
z"/>
<path fill="#E4EDFF" opacity="1.000000" stroke="none" 
	d="
M390.315308,391.036133 
	C390.177979,390.717804 390.300354,390.321686 390.768311,389.990601 
	C390.934265,390.356567 390.754608,390.657471 390.315308,391.036133 
z"/>
<path fill="#E4ECFE" opacity="1.000000" stroke="none" 
	d="
M111.961456,391.314758 
	C112.278931,391.177765 112.672104,391.302887 113.006348,391.770752 
	C112.643997,391.934631 112.340584,391.755768 111.961456,391.314758 
z"/>
<path fill="#E4EDFF" opacity="1.000000" stroke="none" 
	d="
M389.316711,392.037354 
	C389.176483,391.713745 389.297119,391.314728 389.765442,390.986267 
	C389.934631,391.358490 389.756104,391.660217 389.316711,392.037354 
z"/>
<path fill="#E4ECFE" opacity="1.000000" stroke="none" 
	d="
M112.963531,392.310760 
	C113.282822,392.177124 113.680214,392.303314 114.010246,392.771667 
	C113.642464,392.932770 113.342041,392.751678 112.963531,392.310760 
z"/>
<path fill="#E4EDFF" opacity="1.000000" stroke="none" 
	d="
M388.313416,393.035095 
	C388.178101,392.720306 388.302124,392.326538 388.770081,391.993347 
	C388.933655,392.354645 388.753235,392.655365 388.313416,393.035095 
z"/>
<path fill="#E4ECFE" opacity="1.000000" stroke="none" 
	d="
M113.963730,393.321136 
	C114.267059,393.181274 114.646782,393.303711 114.990723,393.770813 
	C114.650009,393.938141 114.345062,393.760773 113.963730,393.321136 
z"/>
<path fill="#E4EDFF" opacity="1.000000" stroke="none" 
	d="
M387.306335,394.037933 
	C387.172546,393.711761 387.302795,393.313690 387.772766,392.986084 
	C387.931763,393.359711 387.751038,393.662872 387.306335,394.037933 
z"/>
<path fill="#E4ECFE" opacity="1.000000" stroke="none" 
	d="
M114.959763,394.309326 
	C115.256783,394.180969 115.629860,394.318634 115.982025,394.785339 
	C115.652687,394.934723 115.344261,394.755035 114.959763,394.309326 
z"/>
<path fill="#E4EDFF" opacity="1.000000" stroke="none" 
	d="
M386.295258,395.029572 
	C386.179443,394.746307 386.325226,394.379517 386.792725,394.024048 
	C386.928619,394.338898 386.742737,394.642487 386.295258,395.029572 
z"/>
<path fill="#E4ECFE" opacity="1.000000" stroke="none" 
	d="
M115.960487,395.306519 
	C116.258415,395.179474 116.630875,395.319458 116.982162,395.786926 
	C116.652328,395.934082 116.343674,395.753784 115.960487,395.306519 
z"/>
<path fill="#E4EDFF" opacity="1.000000" stroke="none" 
	d="
M385.309204,396.039429 
	C385.178650,395.739044 385.314056,395.362457 385.779907,395.011475 
	C385.931976,395.345795 385.753571,395.654510 385.309204,396.039429 
z"/>
<path fill="#E4ECFE" opacity="1.000000" stroke="none" 
	d="
M116.959961,396.305786 
	C117.265739,396.178284 117.645477,396.316956 117.989510,396.786011 
	C117.647171,396.934937 117.340546,396.753448 116.959961,396.305786 
z"/>
<path fill="#E4ECFE" opacity="1.000000" stroke="none" 
	d="
M117.959412,397.310791 
	C118.275375,397.178223 118.666534,397.308960 119.002029,397.777527 
	C118.642441,397.934967 118.338524,397.754547 117.959412,397.310791 
z"/>
<path fill="#E4ECFE" opacity="1.000000" stroke="none" 
	d="
M393.035583,113.686508 
	C392.722443,113.821205 392.330597,113.696091 391.996033,113.228340 
	C392.354523,113.066040 392.655701,113.246368 393.035583,113.686508 
z"/>
<path fill="#E4ECFE" opacity="1.000000" stroke="none" 
	d="
M386.040344,106.693710 
	C385.745331,106.819183 385.375122,106.677383 385.021667,106.209778 
	C385.347321,106.064796 385.656189,106.245613 386.040344,106.693710 
z"/>
<path fill="#E5EDFF" opacity="1.000000" stroke="none" 
	d="
M115.698944,106.964439 
	C115.821243,107.260498 115.680260,107.636452 115.211563,107.985237 
	C115.067787,107.653488 115.251724,107.348907 115.698944,106.964439 
z"/>
<path fill="#E4ECFE" opacity="1.000000" stroke="none" 
	d="
M387.039490,107.687225 
	C386.744568,107.817276 386.373047,107.682091 386.020203,107.215584 
	C386.346863,107.063507 386.654877,107.242752 387.039490,107.687225 
z"/>
<path fill="#E5EDFF" opacity="1.000000" stroke="none" 
	d="
M114.689697,107.961533 
	C114.824905,108.282532 114.697090,108.677986 114.228073,109.009865 
	C114.066803,108.642860 114.246742,108.339424 114.689697,107.961533 
z"/>
<path fill="#E4ECFE" opacity="1.000000" stroke="none" 
	d="
M388.036499,108.678818 
	C387.727478,108.819633 387.342438,108.698868 387.003296,108.231415 
	C387.352905,108.062233 387.656708,108.239731 388.036499,108.678818 
z"/>
<path fill="#E5EDFF" opacity="1.000000" stroke="none" 
	d="
M113.688309,108.964752 
	C113.821800,109.276169 113.695282,109.666862 113.227097,110.002960 
	C113.066391,109.646912 113.247345,109.345467 113.688309,108.964752 
z"/>
<path fill="#E4ECFE" opacity="1.000000" stroke="none" 
	d="
M389.036377,109.688461 
	C388.715820,109.822769 388.317261,109.697594 387.988342,109.229416 
	C388.358124,109.067268 388.658234,109.248123 389.036377,109.688461 
z"/>
<path fill="#E5EDFF" opacity="1.000000" stroke="none" 
	d="
M112.684631,109.962357 
	C112.822830,110.280800 112.699379,110.674736 112.230736,111.007202 
	C112.064690,110.643112 112.243835,110.340485 112.684631,109.962357 
z"/>
<path fill="#E4ECFE" opacity="1.000000" stroke="none" 
	d="
M390.038239,110.683762 
	C389.719177,110.822327 389.324768,110.699051 388.992004,110.231239 
	C389.356720,110.065109 389.659821,110.243515 390.038239,110.683762 
z"/>
<path fill="#E5EDFF" opacity="1.000000" stroke="none" 
	d="
M111.684296,110.961693 
	C111.821953,111.280228 111.698219,111.674873 111.230034,112.007507 
	C111.064690,111.642929 111.243790,111.340370 111.684296,110.961693 
z"/>
<path fill="#E4ECFE" opacity="1.000000" stroke="none" 
	d="
M391.036438,111.685791 
	C390.722504,111.821182 390.330688,111.696175 389.996094,111.228394 
	C390.355072,111.065544 390.656799,111.245461 391.036438,111.685791 
z"/>
<path fill="#E5EDFF" opacity="1.000000" stroke="none" 
	d="
M110.684135,111.961731 
	C110.822533,112.281944 110.699524,112.678337 110.231621,113.010406 
	C110.065399,112.643364 110.244064,112.340637 110.684135,111.961731 
z"/>
<path fill="#E4ECFE" opacity="1.000000" stroke="none" 
	d="
M392.037811,112.683075 
	C391.716583,112.822792 391.320312,112.701073 390.989655,112.233017 
	C391.357788,112.065002 391.660248,112.243324 392.037811,112.683075 
z"/>
<path fill="#E5EDFF" opacity="1.000000" stroke="none" 
	d="
M109.688210,112.964249 
	C109.823196,113.283989 109.698830,113.682266 109.230408,114.011948 
	C109.067184,113.643173 109.248016,113.342987 109.688210,112.964249 
z"/>
<path fill="#E5EDFF" opacity="1.000000" stroke="none" 
	d="
M116.690880,105.960358 
	C116.820442,106.260712 116.684563,106.637619 116.217361,106.987297 
	C116.065849,106.652359 116.245644,106.344635 116.690880,105.960358 
z"/>
<path fill="#E5EDFF" opacity="1.000000" stroke="none" 
	d="
M108.680298,113.963928 
	C108.820663,114.273438 108.699516,114.659424 108.231659,114.998398 
	C108.062904,114.647736 108.240852,114.344070 108.680298,113.963928 
z"/>
<path fill="#E4ECFE" opacity="1.000000" stroke="none" 
	d="
M394.040741,114.690300 
	C393.719208,114.823517 393.323029,114.693420 392.990967,114.225021 
	C393.358765,114.066811 393.662445,114.246895 394.040741,114.690300 
z"/>
<path fill="#E5EDFF" opacity="1.000000" stroke="none" 
	d="
M107.688492,114.960892 
	C107.819099,115.260689 107.685135,115.637268 107.217537,115.985916 
	C107.063911,115.651222 107.243912,115.344460 107.688492,114.960892 
z"/>
<path fill="#E4ECFE" opacity="1.000000" stroke="none" 
	d="
M395.039795,115.695847 
	C394.735962,115.821999 394.358795,115.681168 394.013092,115.212029 
	C394.351837,115.065430 394.659149,115.247147 395.039795,115.695847 
z"/>
<path fill="#E5EDFF" opacity="1.000000" stroke="none" 
	d="
M106.692627,115.959900 
	C106.820610,116.262535 106.683197,116.641121 106.214661,116.987900 
	C106.064758,116.649338 106.245995,116.342598 106.692627,115.959900 
z"/>
<path fill="#E4ECFE" opacity="1.000000" stroke="none" 
	d="
M396.039490,116.692154 
	C395.745056,116.819473 395.375397,116.679680 395.021057,116.213181 
	C395.345642,116.065987 395.654938,116.245514 396.039490,116.692154 
z"/>
<path fill="#E5EDFF" opacity="1.000000" stroke="none" 
	d="
M105.690720,116.960167 
	C105.820168,117.263046 105.684784,117.642273 105.216530,117.988632 
	C105.064407,117.649353 105.245148,117.342934 105.690720,116.960167 
z"/>
<path fill="#E4ECFE" opacity="1.000000" stroke="none" 
	d="
M397.039978,117.688873 
	C396.741211,117.818787 396.366272,117.683357 396.016052,117.216568 
	C396.348450,117.064644 396.656128,117.244095 397.039978,117.688873 
z"/>
<path fill="#E5EDFF" opacity="1.000000" stroke="none" 
	d="
M104.690628,117.960129 
	C104.821213,118.267899 104.687523,118.651688 104.219017,118.994034 
	C104.064919,118.647118 104.245644,118.341629 104.690628,117.960129 
z"/>
<path fill="#E4ECFE" opacity="1.000000" stroke="none" 
	d="
M398.039001,118.684174 
	C397.734131,118.818596 397.352814,118.689743 397.008972,118.222504 
	C397.351807,118.063057 397.657166,118.241982 398.039001,118.684174 
z"/>
<path fill="#E4ECFE" opacity="1.000000" stroke="none" 
	d="
M385.040405,105.693680 
	C384.744354,105.819366 384.373138,105.677902 384.020599,105.210083 
	C384.347931,105.064651 384.656555,105.245590 385.040405,105.693680 
z"/>
<path fill="#E5EDFF" opacity="1.000000" stroke="none" 
	d="
M117.691299,104.960068 
	C117.819992,105.261513 117.683556,105.639305 117.215317,105.986954 
	C117.064400,105.650009 117.245285,105.343208 117.691299,104.960068 
z"/>
<path fill="#E4ECFE" opacity="1.000000" stroke="none" 
	d="
M384.041199,104.694061 
	C383.732635,104.821831 383.349457,104.683983 383.007324,104.215057 
	C383.354462,104.065475 383.660522,104.246964 384.041199,104.694061 
z"/>
<path fill="#E5EDFF" opacity="1.000000" stroke="none" 
	d="
M118.687393,103.961090 
	C118.819466,104.263870 118.687599,104.643394 118.219864,104.989365 
	C118.063805,104.649834 118.243629,104.343834 118.687393,103.961090 
z"/>
</svg>